<svg xmlns="http://www.w3.org/2000/svg" viewBox="0 0 512 512" role="img" aria-label="Potmate app icon">
  <defs>
    <linearGradient id="bg" x1="72" y1="40" x2="440" y2="472" gradientUnits="userSpaceOnUse">
      <stop offset="0" stop-color="#fff3da"/>
      <stop offset="0.52" stop-color="#dff3e7"/>
      <stop offset="1" stop-color="#b9d7ef"/>
    </linearGradient>
    <linearGradient id="pot" x1="148" y1="230" x2="364" y2="430" gradientUnits="userSpaceOnUse">
      <stop offset="0" stop-color="#f58a66"/>
      <stop offset="1" stop-color="#c95f4f"/>
    </linearGradient>
    <linearGradient id="leafLeft" x1="168" y1="140" x2="256" y2="264" gradientUnits="userSpaceOnUse">
      <stop offset="0" stop-color="#92d66f"/>
      <stop offset="1" stop-color="#3d9f70"/>
    </linearGradient>
    <linearGradient id="leafRight" x1="262" y1="110" x2="356" y2="248" gradientUnits="userSpaceOnUse">
      <stop offset="0" stop-color="#67d7a1"/>
      <stop offset="1" stop-color="#1d8f83"/>
    </linearGradient>
    <filter id="softShadow" x="-20%" y="-20%" width="140%" height="140%">
      <feDropShadow dx="0" dy="18" stdDeviation="20" flood-color="#4d5c65" flood-opacity="0.22"/>
    </filter>
  </defs>
  <rect width="512" height="512" rx="112" fill="url(#bg)"/>
  <circle cx="112" cy="126" r="14" fill="#ffd16a" opacity="0.9"/>
  <circle cx="406" cy="158" r="10" fill="#7db5e8" opacity="0.8"/>
  <circle cx="384" cy="374" r="13" fill="#f5a4a0" opacity="0.7"/>
  <g filter="url(#softShadow)">
    <ellipse cx="256" cy="407" rx="126" ry="28" fill="#6b6f76" opacity="0.16"/>
    <path d="M254 274 C238 230 238 181 268 138" fill="none" stroke="#3f8f70" stroke-width="16" stroke-linecap="round"/>
    <path d="M250 250 C224 206 180 190 148 212 C182 258 220 268 250 250 Z" fill="url(#leafLeft)"/>
    <path d="M264 226 C286 174 332 150 370 168 C344 226 304 250 264 226 Z" fill="url(#leafRight)"/>
    <path d="M248 244 C260 199 294 176 322 182" fill="none" stroke="#e4f8d4" stroke-width="7" stroke-linecap="round" opacity="0.72"/>
    <path d="M244 254 C218 224 190 214 170 218" fill="none" stroke="#d9f3c0" stroke-width="7" stroke-linecap="round" opacity="0.72"/>
    <path d="M146 248 H366 L344 404 C340 430 320 448 294 448 H218 C192 448 172 430 168 404 Z" fill="url(#pot)"/>
    <path d="M134 228 C134 210 148 196 166 196 H346 C364 196 378 210 378 228 V252 C378 268 365 280 349 280 H163 C147 280 134 268 134 252 Z" fill="#ffad77"/>
    <path d="M154 246 H358" fill="none" stroke="#c85e4e" stroke-width="9" stroke-linecap="round" opacity="0.42"/>
    <circle cx="222" cy="340" r="11" fill="#663f3a"/>
    <circle cx="290" cy="340" r="11" fill="#663f3a"/>
    <path d="M234 372 C246 384 266 384 278 372" fill="none" stroke="#663f3a" stroke-width="9" stroke-linecap="round"/>
    <circle cx="196" cy="366" r="12" fill="#ffb6a5" opacity="0.75"/>
    <circle cx="316" cy="366" r="12" fill="#ffb6a5" opacity="0.75"/>
    <path d="M176 298 C206 314 302 314 336 298" fill="none" stroke="#ffc593" stroke-width="11" stroke-linecap="round" opacity="0.55"/>
  </g>
</svg>
